<svg xmlns="http://www.w3.org/2000/svg" width="256" height="256" viewBox="0 0 256 256" role="img" aria-label="LangChain logo">
  <defs>
    <linearGradient id="lcg" x1="0" y1="0" x2="1" y2="1">
      <stop offset="0" stop-color="#2563eb"/>
      <stop offset="1" stop-color="#7c3aed"/>
    </linearGradient>
  </defs>
  <rect x="16" y="16" width="224" height="224" rx="56" fill="url(#lcg)"/>
  <g fill="#fff" opacity="0.95">
    <path d="M84 98c0-8.8 7.2-16 16-16h40c8.8 0 16 7.2 16 16v8h-24v-4H108v52h24v-4h24v8c0 8.8-7.2 16-16 16H100c-8.8 0-16-7.2-16-16V98z"/>
    <path d="M164 110h12c6.6 0 12 5.4 12 12v22c0 6.6-5.4 12-12 12h-12v-12h8v-10h-8v-12h8v-10h-8v-12z"/>
  </g>
</svg>
